<svg xmlns="http://www.w3.org/2000/svg" width="206.053" height="206.053" viewBox="0 0 206.053 206.053">
  <path id="js-brands" d="M0,32V238.053H206.053V32ZM112.133,192.7c0,20.053-11.774,29.206-28.93,29.206-15.5,0-24.469-8-29.068-17.708l15.776-9.521c3.036,5.381,5.8,9.935,12.464,9.935,6.347,0,10.395-2.484,10.395-12.188V126.61h19.363Zm45.81,29.206c-17.984,0-29.62-8.555-35.277-19.777l15.776-9.107c4.139,6.761,9.567,11.774,19.087,11.774,8,0,13.154-4,13.154-9.567,0-6.623-5.243-8.969-14.12-12.878l-4.829-2.07c-13.982-5.933-23.227-13.43-23.227-29.206,0-14.534,11.085-25.573,28.332-25.573,12.326,0,21.157,4.277,27.5,15.5l-15.086,9.659c-3.312-5.933-6.9-8.279-12.464-8.279-5.657,0-9.245,3.588-9.245,8.279,0,5.8,3.588,8.141,11.912,11.774l4.829,2.07C180.756,171.546,190,178.767,190,194.957c0,17.386-13.706,26.952-32.058,26.952Z" transform="translate(0 -32)" fill="#fff"/>
</svg>
