<svg xmlns="http://www.w3.org/2000/svg" width="457.044" height="651.699" viewBox="0 0 457.044 651.699">
  <g id="logo" transform="translate(-731 -224)">
    <path id="Path_1" data-name="Path 1" d="M448.834,313.563s-47.694,230.7-157.5,252.883h-5.485a182.173,182.173,0,0,1-125.9-50.5h0a169.446,169.446,0,0,1-47.07-164.418l9.984-39.071Z" transform="translate(663.033 309.252)" fill="#382727"/>
    <g id="Group_1" data-name="Group 1" transform="translate(741.705 497.483)">
      <path id="Path_2" data-name="Path 2" d="M99.317,330.576h37.4V214.859h-37.4A14.443,14.443,0,0,0,84.874,229.3v86.829A14.443,14.443,0,0,0,99.317,330.576Z" transform="translate(-84.874 -214.859)" fill="#e0a88f"/>
      <path id="Path_3" data-name="Path 3" d="M407.731,214.859H367.3V330.576h40.429a14.443,14.443,0,0,0,14.443-14.443V229.3A14.444,14.444,0,0,0,407.731,214.859Z" transform="translate(-7.814 -214.859)" fill="#e0a88f"/>
    </g>
    <path id="Path_4" data-name="Path 4" d="M433.174,351.525,417.7,313.563l-66.054-1.109,9.984,39.071a169.444,169.444,0,0,1-47.07,164.418h0a182.172,182.172,0,0,1-92.87,47.473,182.208,182.208,0,0,0,33.027,3.031h5.485a182.173,182.173,0,0,0,125.9-50.5h0A169.444,169.444,0,0,0,433.174,351.525Z" transform="translate(694.162 309.252)" fill="#31230e"/>
    <path id="Path_5" data-name="Path 5" d="M119.6,128.94V362.525l37.6,17.691a296.072,296.072,0,0,0,54.631,19.425,11.121,11.121,0,0,0,9.443-1.987c15.993-12.21,37.562-19.7,61.311-19.7,23.924,0,45.644,7.6,61.673,19.976a11.108,11.108,0,0,0,9.433,2.037,296.116,296.116,0,0,0,54.021-18.846l-.966-17.481-3.327-228.76Z" transform="translate(666.305 259.181)" fill="#f2c6a0"/>
    <path id="Path_6" data-name="Path 6" d="M119.6,128.94v125.6c0-29.1,17.313-59.329,38.822-79.232a7.435,7.435,0,0,1,12.289,3.624c8.593,34.12,29.432,57.626,69.979,57.626h53.321c18.815,0,35.221.493,51.624.956a46.333,46.333,0,0,1,45.03,46.316v38.11a65.186,65.186,0,0,1-37.853,59.177h0q-10.407,4.808-21.081,8.748a89.473,89.473,0,0,1,12.538,8.067,11.1,11.1,0,0,0,9.425,2.03,296.132,296.132,0,0,0,54.022-18.846l37.853-17.481V134.874Z" transform="translate(666.305 259.181)" fill="#e6b593"/>
    <path id="Path_7" data-name="Path 7" d="M203.943,0a26.391,26.391,0,0,0-26.391,26.391v.586h0A101.088,101.088,0,0,0,76.465,128.064v67.715c0,38.159,22.475,45.354,54.9,60.511V245.355c0-29.1,17.312-59.327,38.818-79.23a7.437,7.437,0,0,1,12.292,3.625c8.594,34.119,29.433,57.622,69.979,57.622h53.321c102.655,0,185.875-83.22,185.875-185.875V0Z" transform="translate(654.536 224)" fill="#382727"/>
    <g id="Group_2" data-name="Group 2" transform="translate(731 224)">
      <path id="Path_8" data-name="Path 8" d="M98.762,134.57a7.437,7.437,0,0,0-12.292-3.625,129.85,129.85,0,0,0-10.006,10.372V160.6a95.127,95.127,0,0,0,54.9,86.21V210.176a85.43,85.43,0,0,1,3.939-24.953C115.994,175.842,104.572,157.639,98.762,134.57Z" transform="translate(-76.464 35.181)" fill="#31230e"/>
      <path id="Path_9" data-name="Path 9" d="M409.61,0V41.5c0,102.655-83.22,185.875-185.875,185.875H307.45c102.655,0,185.875-83.22,185.875-185.875V0Z" transform="translate(-36.281)" fill="#31230e"/>
      <circle id="Ellipse_1" data-name="Ellipse 1" cx="12.478" cy="12.478" r="12.478" transform="translate(267.643 296.719)" fill="#31230e"/>
      <circle id="Ellipse_2" data-name="Ellipse 2" cx="12.478" cy="12.478" r="12.478" transform="translate(132.335 296.719)" fill="#31230e"/>
      <circle id="Ellipse_3" data-name="Ellipse 3" cx="12.478" cy="12.478" r="12.478" transform="translate(267.643 296.719)" fill="#31230e"/>
      <circle id="Ellipse_4" data-name="Ellipse 4" cx="12.478" cy="12.478" r="12.478" transform="translate(132.335 296.719)" fill="#31230e"/>
    </g>
    <path id="Path_10" data-name="Path 10" d="M258.8,393.691a138.186,138.186,0,0,1-39.512-5.739,11.5,11.5,0,0,1,6.573-22.043,116.026,116.026,0,0,0,63.735.626,11.5,11.5,0,1,1,6.127,22.17,138.6,138.6,0,0,1-35.268,4.976C259.906,393.688,259.356,393.691,258.8,393.691Z" transform="translate(691.264 323.706)" fill="#f2c6a0"/>
  </g>
</svg>
